<svg viewBox="0 0 144 40" fill="#fff" xmlns="http://www.w3.org/2000/svg" >
<path d="M16.1065 3.86572H23.6019L39.787 39.9998H31.9773L19.7678 12.19L7.80969 39.9998H0L16.1065 3.86572Z"></path>
<path d="M14.0322 30.7402H25.2832L27.7031 37.3497H11.6123L14.0322 30.7402Z"></path>
<path d="M30.2017 3.86572H38.1528L50.268 31.7847L62.2104 3.86572H70.0672L54.0393 39.9063H46.4967L30.2017 3.86572Z"></path>
<path d="M76.7928 3.86572H84.2882L100.473 39.9998H92.6636L80.4541 12.19L68.496 39.9998H60.6863L76.7928 3.86572Z"></path>
<path d="M74.7185 30.7402H85.9695L88.3894 37.3497H72.2986L74.7185 30.7402Z"></path>
<path d="M98.0317 15.2768C97.1831 15.2768 96.3924 15.1417 95.6589 14.8715C94.9361 14.5909 94.3075 14.196 93.7732 13.6867C93.239 13.1775 92.8201 12.58 92.5162 11.8941C92.2229 11.2082 92.0762 10.4547 92.0762 9.63375C92.0762 8.81276 92.2229 8.05931 92.5162 7.37342C92.8201 6.68753 93.239 6.08996 93.7732 5.58075C94.3182 5.07153 94.9518 4.68182 95.6746 4.41161C96.3974 4.13102 97.1885 3.99072 98.0474 3.99072C99.0009 3.99072 99.8598 4.15699 100.624 4.48955C101.4 4.8117 102.049 5.28977 102.573 5.92369L100.939 7.42018C100.562 6.99409 100.143 6.67715 99.6816 6.46929C99.2209 6.25105 98.718 6.14193 98.1731 6.14193C97.6599 6.14193 97.1885 6.22508 96.7588 6.39135C96.3295 6.55761 95.9574 6.79665 95.6432 7.10842C95.3289 7.42018 95.0828 7.7891 94.9046 8.2152C94.7371 8.64129 94.6532 9.11412 94.6532 9.63375C94.6532 10.1534 94.7371 10.6262 94.9046 11.0523C95.0828 11.4784 95.3289 11.8473 95.6432 12.1591C95.9574 12.4708 96.3295 12.7099 96.7588 12.8761C97.1885 13.0424 97.6599 13.1256 98.1731 13.1256C98.718 13.1256 99.2209 13.0216 99.6816 12.8138C100.143 12.5956 100.562 12.2682 100.939 11.8317L102.573 13.3282C102.049 13.9621 101.4 14.4454 100.624 14.7779C99.8598 15.1105 98.9955 15.2768 98.0317 15.2768ZM109.405 15.2768C108.535 15.2768 107.728 15.1365 106.985 14.8559C106.251 14.5753 105.612 14.1804 105.068 13.6712C104.533 13.1619 104.114 12.5644 103.811 11.8785C103.517 11.1926 103.371 10.4443 103.371 9.63375C103.371 8.82315 103.517 8.0749 103.811 7.38901C104.114 6.70312 104.538 6.10555 105.083 5.59633C105.628 5.08712 106.267 4.6922 107 4.41161C107.734 4.13102 108.53 3.99072 109.389 3.99072C110.258 3.99072 111.055 4.13102 111.777 4.41161C112.511 4.6922 113.144 5.08712 113.679 5.59633C114.223 6.10555 114.648 6.70312 114.951 7.38901C115.255 8.06452 115.407 8.81276 115.407 9.63375C115.407 10.4443 115.255 11.1978 114.951 11.8941C114.648 12.58 114.223 13.1775 113.679 13.6867C113.144 14.1856 112.511 14.5753 111.777 14.8559C111.055 15.1365 110.263 15.2768 109.405 15.2768ZM109.389 13.1256C109.881 13.1256 110.332 13.0424 110.74 12.8761C111.159 12.7099 111.526 12.4708 111.84 12.1591C112.154 11.8473 112.395 11.4784 112.563 11.0523C112.741 10.6262 112.83 10.1534 112.83 9.63375C112.83 9.11412 112.741 8.64129 112.563 8.2152C112.395 7.7891 112.154 7.42018 111.84 7.10842C111.536 6.79665 111.175 6.55761 110.756 6.39135C110.337 6.22508 109.881 6.14193 109.389 6.14193C108.896 6.14193 108.441 6.22508 108.022 6.39135C107.613 6.55761 107.252 6.79665 106.938 7.10842C106.623 7.42018 106.377 7.7891 106.199 8.2152C106.031 8.64129 105.948 9.11412 105.948 9.63375C105.948 10.143 106.031 10.6158 106.199 11.0523C106.377 11.4784 106.618 11.8473 106.922 12.1591C107.236 12.4708 107.603 12.7099 108.022 12.8761C108.441 13.0424 108.896 13.1256 109.389 13.1256ZM117.32 15.0897V4.17778H122.081C123.066 4.17778 123.915 4.33888 124.627 4.66103C125.339 4.9728 125.889 5.42486 126.277 6.01722C126.665 6.60958 126.858 7.31627 126.858 8.13725C126.858 8.94785 126.665 9.64934 126.277 10.2417C125.889 10.8237 125.339 11.2705 124.627 11.5823C123.915 11.8941 123.066 12.05 122.081 12.05H118.734L119.866 10.9432V15.0897H117.32ZM124.313 15.0897L121.563 11.1302H124.281L127.063 15.0897H124.313ZM119.866 11.2238L118.734 10.039H121.94C122.726 10.039 123.312 9.87278 123.7 9.54022C124.088 9.19727 124.281 8.72962 124.281 8.13725C124.281 7.53451 124.088 7.06686 123.7 6.73429C123.312 6.40173 122.726 6.23546 121.94 6.23546H118.734L119.866 5.03515V11.2238ZM131.217 8.57373H136.512V10.5379H131.217V8.57373ZM131.405 13.0632H137.392V15.0897H128.875V4.17778H137.188V6.20428H131.405V13.0632Z"></path></svg>